<svg version="1.1" id="Layer_1" xmlns="http://www.w3.org/2000/svg" xmlns:xlink="http://www.w3.org/1999/xlink" x="0px" y="0px" width="100%" viewBox="-3 -3 758 710" enable-background="new 0 0 752 704" xml:space="preserve"><g id="deeditor_bgCarrier" stroke-width="0">
    <rect id="dee_c_e" x="-3" y="-3" width="758" height="710" rx="0" fill="#00132d" strokewidth="0"/>
  </g>
<path fill="#ffffff" opacity="1.000000" stroke="none" d=" M592.996460,504.298645   C540.171448,504.295868 487.845520,504.296600 435.519623,504.285858   C427.930847,504.284302 426.788849,502.893555 428.111877,495.433594   C431.549988,476.047729 448.480347,461.855042 468.243408,461.639801   C470.931366,461.610504 473.908234,462.635101 476.302185,460.438110   C474.040344,453.607941 463.872894,447.942413 455.613739,448.809113   C435.883911,450.879578 417.741394,467.202911 413.342468,486.725830   C412.380310,490.996063 412.105774,495.291718 412.278656,499.620758   C412.416870,503.082733 410.873291,504.414948 407.494080,504.310669   C403.165741,504.177124 398.829773,504.299194 394.497070,504.299652   C352.669678,504.304138 310.842285,504.322968 269.014893,504.298096   C257.526184,504.291260 258.664093,505.351257 258.752289,493.667542   C258.935852,469.353424 276.226501,446.654083 299.766235,440.601593   C317.483765,436.046082 333.684113,440.195709 348.167206,451.246185   C348.828094,451.750458 349.365173,452.438232 350.067261,452.863220   C352.089783,454.087463 353.454468,457.589233 356.186859,456.168823   C359.259583,454.571564 360.579712,451.063416 360.508514,447.657074   C360.436646,444.219116 359.662292,440.947968 356.589569,438.402802   C345.879028,429.531036 333.802399,424.358154 319.867279,423.237335   C300.889160,421.710938 284.003296,426.532898 269.138733,438.581848   C251.930252,452.530762 244.177002,470.960907 243.412643,492.600830   C242.945587,505.823608 244.805161,504.238190 231.558838,504.277985   C209.562134,504.344055 187.561874,504.547058 165.569244,504.245728   C146.795944,503.988556 129.597275,498.630127 114.459694,487.082245   C84.855042,464.497955 77.263023,422.973938 98.267998,394.124207   C112.709892,374.288696 132.699249,366.096313 157.138123,369.375580   C160.490463,369.825409 161.717087,368.654816 161.798126,365.437164   C162.519852,336.783508 182.370117,317.153137 208.370941,312.224579   C213.811295,311.193390 219.242157,311.477448 224.707977,312.559937   C227.948898,313.201782 228.736084,314.341614 227.057251,317.213684   C220.082260,329.146149 216.031540,342.073242 213.817352,355.668396   C213.328186,358.671814 213.088577,361.671387 213.377136,364.605438   C213.882080,369.739807 211.940536,373.348022 208.225555,376.801605   C193.862213,390.154266 188.059784,406.921936 189.300446,426.320190   C189.868225,435.197693 197.114487,447.793518 205.193314,453.151428   C206.246429,447.921326 204.681519,443.154083 204.147903,438.445099   C201.836151,418.044952 206.298676,400.076477 222.189362,386.005096   C223.925079,384.468048 225.675507,382.527557 227.762360,381.879578   C236.973557,379.019287 240.116714,370.412170 246.022110,363.752411   C239.634003,362.170013 234.388000,365.863037 227.617889,366.047028   C232.340347,358.678192 239.108185,354.700470 244.876785,349.555481   C242.133682,346.650513 237.956436,348.359802 234.510605,345.488861   C242.301270,337.164124 252.526398,335.626770 262.851349,334.018890   C262.276794,329.837341 257.906464,328.380768 256.930481,324.325897   C265.553894,322.611603 273.788910,324.241943 283.046631,325.810944   C279.061707,315.745880 269.032379,312.908447 263.053040,305.474335   C270.454315,304.090424 277.108582,302.999176 283.686615,301.559723   C287.733093,300.674316 291.765564,299.498749 294.843689,296.369324   C296.937469,294.240631 298.502716,291.892761 297.363983,288.805756   C296.164032,285.552856 293.636688,283.807922 290.204498,283.374207   C286.221619,282.870941 282.667694,284.438660 279.085205,285.752625   C262.057098,291.998077 244.610397,292.581543 227.001282,289.217438   C216.152161,287.144775 207.495331,281.779297 203.125565,270.946716   C201.850540,267.785950 201.991974,265.472504 205.674789,264.375824   C205.831268,264.329224 205.971893,264.226654 206.116989,264.144958   C213.313309,260.092621 217.770615,252.748947 216.616257,246.847885   C215.600632,241.655975 208.088104,236.966354 199.828873,236.445007   C197.877975,236.321869 195.912689,236.426758 192.979980,236.426758   C196.557999,232.147583 200.661987,230.446533 204.664886,228.804413   C215.590912,224.322205 226.671478,220.213989 237.567825,215.663132   C244.692581,212.687515 250.696548,208.356583 252.322525,200.031067   C252.516968,199.035538 252.822540,198.090790 251.881241,197.208633   C250.138260,197.016373 249.399872,198.555176 248.301056,199.455292   C247.241531,200.323196 246.142899,201.293228 244.766403,200.402908   C243.300934,199.455032 244.084610,198.083878 244.395920,196.795105   C244.781219,195.200119 245.863083,193.761047 245.519653,191.993408   C245.018585,190.306702 242.854340,191.833282 242.098740,189.847794   C242.302429,188.824448 242.584732,187.382599 242.876953,185.942749   C243.556061,182.596786 247.132797,179.835236 244.754349,175.791168   C244.411667,175.208527 245.434479,173.636337 246.078400,172.695206   C247.934738,169.982132 250.340454,168.053329 249.190063,163.675064   C248.249390,160.094986 253.533417,160.554367 255.988464,158.375946   C254.208206,154.331833 256.457031,152.586044 260.275909,151.251266   C262.568909,150.449814 264.884705,148.677231 262.166962,145.599487   C260.590546,143.814240 261.296967,142.248825 263.122772,141.047760   C263.678680,140.682068 264.263763,140.358032 264.802032,139.968674   C270.467072,135.870865 270.447693,135.877274 267.290894,129.720032   C266.939331,129.034348 266.927307,128.174576 266.760406,127.407387   C273.423920,125.641418 273.469421,125.627060 271.328369,118.840004   C270.748688,117.002457 270.746857,115.291069 271.448395,113.294823   C272.705688,113.525398 273.949982,113.753586 275.109589,113.966248   C275.418121,113.501221 275.787262,113.199348 275.747070,112.968819   C274.030884,103.123085 279.240570,94.570335 280.932831,85.365822   C281.224792,83.777771 282.180664,82.284897 282.961212,80.817947   C287.876831,71.579781 298.569458,70.662399 304.262451,79.456245   C308.677795,86.276550 311.914368,93.849174 315.901855,100.960106   C320.762024,109.627373 326.783447,117.307678 335.542084,122.461891   C340.760101,125.532562 343.386932,125.065811 346.849731,120.010796   C350.185608,115.141068 351.736053,109.467422 353.605621,103.958633   C356.436340,95.617599 358.765228,87.109436 363.566711,79.537163   C371.219177,67.468590 383.006378,66.995689 391.391632,78.648643   C394.923859,83.557297 397.055664,89.187836 399.321136,94.742348   C404.765137,108.090286 411.330505,120.727493 421.785461,131.002197   C424.874237,134.037704 428.789337,135.928635 431.918030,138.597015   C431.736755,141.102707 429.340790,140.685242 428.271118,142.039688   C431.894562,146.341888 437.575470,146.796555 442.255310,149.427704   C441.368103,152.462326 438.373230,152.365311 436.213531,153.912430   C440.980652,157.453140 446.861908,158.140839 452.273590,160.294693   C450.888153,164.005997 447.854706,164.061386 444.408813,164.850555   C451.141235,170.932648 460.353180,171.859589 466.261841,178.265991   C462.821564,180.925278 458.803162,178.909668 454.770050,180.893600   C462.798737,186.957443 470.983551,192.303329 477.407532,200.105164   C474.036957,199.703110 470.666412,199.301056 465.943817,198.737717   C472.118134,205.976913 480.405579,209.662827 484.634369,217.386154   C481.925812,218.783478 479.832031,215.980286 476.878357,216.903885   C486.822479,227.718597 494.855469,239.192307 493.173340,255.870621   C518.010803,241.981003 542.456421,239.291855 566.536682,254.447128   C590.985352,269.834229 598.259399,293.323792 595.969238,321.423981   C600.552307,321.838684 605.095093,322.464783 609.654419,322.628479   C647.843079,323.999115 684.505310,353.787903 692.224792,392.096222   C699.134888,426.387970 691.024841,456.645233 665.122864,480.821503   C650.347778,494.612152 632.219299,501.815186 611.940796,503.420807   C605.794128,503.907562 599.667053,504.475189 592.996460,504.298645  M460.756042,336.238586   C453.602600,342.909119 446.635406,349.684998 446.393372,361.512207   C451.163300,358.320862 455.001007,355.488373 459.083160,353.068115   C476.286072,342.868774 493.922943,335.700928 514.841736,340.499695   C540.313110,346.342804 560.491760,369.962280 562.615295,392.232758   C563.078735,397.092102 562.268311,402.504700 565.240112,407.086334   C574.786377,401.535858 578.756470,393.001587 576.679565,382.958954   C575.424805,376.892151 573.138000,371.176239 570.551880,365.601471   C551.856995,325.302399 497.792633,308.173431 460.756042,336.238586  M363.212891,129.463333   C358.430420,147.811493 362.655151,162.659515 375.148956,170.881470   C378.511475,164.483749 378.140686,157.237244 379.305939,150.643875   C382.456909,150.105804 383.039886,153.417877 385.549347,153.378571   C385.600800,152.477356 385.654877,151.665543 385.692322,150.852982   C386.107666,141.833603 382.926300,133.569031 380.391968,125.150322   C379.022614,120.601646 376.770721,116.090073 378.349274,110.309868   C379.700012,112.139084 380.538300,113.274338 381.608368,114.723450   C383.587372,109.331017 381.576599,104.793549 380.189423,100.279564   C379.481659,97.976349 378.678436,94.943207 375.821747,94.718498   C372.710876,94.473801 372.085571,97.730728 371.245392,99.887665   C367.625458,109.181038 365.404877,118.886162 363.212891,129.463333  M289.283417,205.751450   C285.602692,209.445740 283.965149,213.866180 284.218903,219.394226   C294.428528,217.661514 304.913788,220.261200 314.621704,214.949005   C311.689484,211.024704 308.488525,208.176590 304.959503,205.693512   C300.034210,202.228073 294.993347,201.413193 289.283417,205.751450  z"/>
<path fill="#ffffff" opacity="1.000000" stroke="none" d=" M446.485565,613.191956   C433.047760,613.255310 420.057617,613.149597 407.072479,613.358276   C402.831665,613.426453 401.632935,611.716858 401.649231,607.736145   C401.754211,582.092590 401.762024,556.447998 401.625946,530.804688   C401.605286,526.909119 402.835022,525.539307 406.775391,525.598267   C419.428101,525.787415 432.086792,525.552124 444.740387,525.708862   C459.283295,525.888916 469.761047,537.566467 468.279419,551.883423   C467.562927,558.806824 462.849274,563.024963 457.459900,566.553040   C457.476135,567.803833 458.527100,567.880371 459.193085,568.115417   C474.036530,573.352844 476.158325,590.093689 466.607208,602.327820   C461.595856,608.746948 454.582672,611.521973 446.485565,613.191956  M421.035828,595.732239   C428.348907,595.721802 435.666748,595.870667 442.973633,595.652649   C449.316162,595.463562 453.494293,591.523010 453.679504,586.087830   C453.869598,580.509338 450.216431,576.740784 443.516785,576.134949   C439.558594,575.776917 435.547882,575.970825 431.560760,575.965942   C418.267181,575.949829 418.216583,575.958862 418.352020,589.471436   C418.373260,591.590149 417.210602,594.277100 421.035828,595.732239  M422.844116,559.677368   C428.655670,559.657776 434.479034,559.861572 440.275421,559.554993   C445.945007,559.255127 450.664795,554.826782 450.514771,550.533325   C450.359955,546.102600 446.131897,542.617249 440.164001,542.424255   C434.192413,542.231018 428.209686,542.374512 422.231873,542.388855   C420.702789,542.392517 418.819336,542.469788 418.602417,544.263733   C418.045319,548.870605 417.955383,553.538879 418.643402,558.142578   C418.888275,559.781067 420.632477,559.584534 422.844116,559.677368  z"/>
<path fill="#ffffff" opacity="1.000000" stroke="none" d=" M291.152161,574.070068   C291.109985,585.268311 290.928680,596.094299 291.118500,606.913757   C291.199738,611.544006 289.768494,613.477356 284.848999,613.360962   C273.177124,613.084778 274.711151,613.837158 274.685547,603.033691   C274.629150,579.221802 274.652924,555.409546 274.697815,531.597534   C274.701721,529.511108 274.115662,527.268555 275.637390,525.310913   C278.487701,524.555969 279.369385,526.963806 280.624817,528.520325   C292.749023,543.551636 304.124695,559.143311 315.233429,574.933655   C315.965485,575.974182 316.838226,576.915833 317.907471,578.223938   C330.994537,559.763733 343.212860,541.148132 358.131561,524.661926   C358.757172,524.889038 359.382751,525.116150 360.008331,525.343262   C360.258514,531.369873 360.723938,537.396667 360.720001,543.423157   C360.706207,564.556335 360.537415,585.689453 360.412750,606.822510   C360.374664,613.280518 360.353027,613.280396 353.601318,613.299194   C344.667267,613.324097 344.664276,613.324097 344.661896,604.389954   C344.658844,592.916626 344.661163,581.443298 344.661163,568.658020   C334.483795,581.430176 327.778931,595.235657 317.419556,608.033325   C308.721222,595.265503 300.557159,583.281982 292.445770,571.375793   C290.970764,571.984741 291.312286,572.937134 291.152161,574.070068  z"/>
<path fill="#ffffff" opacity="1.000000" stroke="none" d=" M174.332062,602.935242   C174.141800,606.546204 174.781342,609.720459 173.426453,614.340271   C163.395233,606.419312 155.000290,597.766235 146.361755,589.370728   C137.684906,580.937927 128.816177,572.702576 119.923103,564.278015   C118.594482,566.165833 119.182556,568.032898 119.173981,569.766785   C119.111374,582.420959 119.059570,595.075989 119.159874,607.729553   C119.191422,611.709473 117.747101,613.425781 113.583488,613.356262   C100.839134,613.143372 102.655556,614.367615 102.633354,602.457397   C102.589279,578.813416 102.595398,555.169250 102.633652,531.525269   C102.636734,529.621887 102.037361,527.565247 104.009491,524.987183   C121.537903,542.133911 138.924484,559.141968 156.348343,576.186401   C158.422989,574.571960 157.599533,572.600220 157.605423,570.946472   C157.651779,557.959717 157.712677,544.970154 157.471695,531.986877   C157.388931,527.527466 158.282944,525.372131 163.451202,525.577148   C176.184464,526.082275 174.219009,524.163696 174.281860,536.510376   C174.393768,558.488892 174.324890,580.468262 174.332062,602.935242  z"/>
<path fill="#ffffff" opacity="1.000000" stroke="none" d=" M674.082581,592.704407   C669.422363,606.509827 658.533325,614.517822 642.678223,615.061157   C629.071350,615.527344 616.676880,611.820801 606.634277,601.956787   C604.342041,599.705383 603.417236,597.808289 606.460693,595.502014   C609.354614,593.309204 610.492432,588.638550 614.191223,588.109680   C617.677063,587.611206 620.088318,591.373169 623.084839,593.069458   C629.064453,596.454468 635.333008,598.134460 642.196899,597.684753   C647.844788,597.314758 652.131531,594.374817 652.773499,590.306335   C653.531189,585.503723 651.394958,582.472473 645.151917,580.250244   C638.578552,577.910339 631.816467,576.087830 625.289978,573.632263   C616.021667,570.145020 609.081726,564.595581 608.617310,553.551819   C608.098389,541.211670 613.835632,532.557922 624.650208,527.745117   C639.790955,521.006958 654.301880,523.933838 667.644043,532.989868   C673.224609,536.777649 673.069519,538.685730 668.379211,543.485352   C662.697571,549.299133 662.722473,549.248657 655.120056,545.511597   C648.935852,542.471741 642.683899,539.924011 635.515564,542.238586   C631.426270,543.559082 628.801331,546.034790 628.450439,550.281982   C628.122803,554.247131 631.016907,556.153931 634.179932,557.608154   C640.571777,560.546753 647.542725,561.631042 654.165955,563.815796   C662.708862,566.633728 670.809326,570.098572 673.649414,579.922302   C674.837708,584.032715 674.410950,588.167480 674.082581,592.704407  z"/>
<path fill="#ffffff" opacity="1.000000" stroke="none" d=" M528.325562,614.145996   C511.547211,608.356750 503.018311,596.421326 502.960541,579.000793   C502.908661,563.351562 503.029755,547.700806 502.832428,532.053772   C502.775146,527.512146 503.917023,525.433960 508.973724,525.607727   C522.277100,526.064697 520.150757,524.088623 520.278992,537.116821   C520.413330,550.767090 520.196350,564.421265 520.367310,578.070801   C520.544128,592.189941 532.343628,600.949829 544.951965,596.544983   C552.032410,594.071350 556.631653,587.575439 556.663208,579.662842   C556.726929,563.680725 556.807800,547.696777 556.613464,531.716797   C556.559509,527.279907 557.786865,525.468079 562.518677,525.607788   C576.476807,526.019897 574.128906,524.004761 574.272888,537.129028   C574.420776,550.612549 573.928345,564.111816 574.387817,577.581299   C575.386047,606.843567 551.144714,619.198303 528.325562,614.145996  z"/>
<path fill="#ffffff" opacity="1.000000" stroke="none" d=" M217.000336,527.282227   C221.405121,524.634033 225.921875,525.872253 230.316315,525.921265   C232.624863,525.947021 232.474655,528.089600 232.481964,529.728882   C232.501236,534.055359 232.376343,538.382690 232.418961,542.708618   C232.627319,563.854126 232.899734,584.998962 233.086929,606.144592   C233.147049,612.935852 232.800385,613.296997 226.098526,613.209900   C217.336441,613.095947 216.050156,615.280701 216.395309,603.121216   C216.881592,585.990540 216.168152,568.828552 216.158997,551.679871   C216.154739,543.696411 216.600311,535.712769 217.000336,527.282227  z"/>
</svg>